<svg width="4076" height="4039" viewBox="0 0 4076 4039" fill="none" xmlns="http://www.w3.org/2000/svg">
<g clip-path="url(#clip0_1803_844)">
<path d="M2038 4039C3163.56 4039 4076 3134.84 4076 2019.5C4076 904.161 3163.56 0 2038 0C912.444 0 0 904.161 0 2019.5C0 3134.84 912.444 4039 2038 4039Z" fill="#24242E"/>
<path d="M3713.24 1642.86C3713.24 1576.22 3660.25 1521.69 3592.99 1521.69C3527.78 1521.69 3473.77 1575.21 3473.77 1642.86C3473.77 1709.51 3526.76 1764.03 3592.99 1764.03C3660.25 1765.04 3713.24 1710.52 3713.24 1642.86ZM3592.99 1730.71C3547.14 1730.71 3511.47 1692.34 3511.47 1642.86C3511.47 1594.4 3547.14 1556.02 3592.99 1556.02C3639.87 1556.02 3676.55 1594.4 3676.55 1642.86C3676.55 1692.34 3639.87 1730.71 3592.99 1730.71Z" fill="#DADADA"/>
<path d="M3625.6 1652.96C3631.72 1650.94 3644.96 1641.85 3644.96 1622.67C3644.96 1599.44 3629.68 1585.31 3604.2 1585.31H3550.2V1699.41H3585.86V1661.04H3595.03L3611.34 1699.41H3650.06L3628.66 1660.03C3626.62 1653.97 3625.6 1652.96 3625.6 1652.96ZM3595.03 1636.8H3585.86V1609.54H3595.03C3603.18 1609.54 3607.26 1613.58 3607.26 1622.67C3608.28 1631.76 3603.18 1636.8 3595.03 1636.8Z" fill="#DADADA"/>
<path d="M1065.87 1736.77C1116.52 1736.77 1157.58 1696.08 1157.58 1645.89C1157.58 1595.7 1116.52 1555.01 1065.87 1555.01C1015.22 1555.01 974.164 1595.7 974.164 1645.89C974.164 1696.08 1015.22 1736.77 1065.87 1736.77Z" fill="#DADADA"/>
<path d="M1161.66 1796.34H741.832V1769.08C741.832 1715.56 795.839 1714.56 823.352 1714.56C854.941 1714.56 869.207 1717.58 869.207 1717.58V1570.16C869.207 1570.16 840.675 1566.12 801.953 1566.12C714.319 1566.12 552.298 1590.36 552.298 1774.13V1797.35H475.873V1933.67H552.298V2221.45H480.968V2357.77H825.39V2221.45H741.832V1933.67H971.107V2221.45H899.777V2357.77H1232.99V2221.45H1161.66V1796.34ZM1874.96 1796.34H1574.36V1932.66H1625.31L1560.09 2134.61C1547.86 2167.93 1544.8 2208.32 1544.8 2208.32H1540.73C1540.73 2208.32 1537.67 2167.93 1525.44 2134.61L1460.23 1932.66H1511.18V1796.34H1210.57V1932.66H1273.75L1430.68 2356.76H1654.86L1811.78 1932.66H1874.96V1796.34ZM2431.33 2053.83C2431.33 1898.33 2336.57 1783.22 2168.43 1783.22C1986.03 1783.22 1873.94 1911.46 1873.94 2076.05C1873.94 2225.49 1982.97 2369.88 2184.74 2369.88C2337.59 2369.88 2428.28 2291.12 2428.28 2291.12L2358.99 2160.86C2358.99 2160.86 2283.58 2214.38 2200.02 2214.38C2139.9 2214.38 2082.84 2183.08 2068.57 2111.39H2427.26C2426.24 2110.38 2431.33 2072.01 2431.33 2053.83ZM2072.65 2007.38C2082.84 1963.96 2109.33 1924.58 2163.34 1924.58C2205.12 1924.58 2234.67 1962.95 2234.67 2007.38H2072.65ZM3235.33 1925.59H3233.29C3233.29 1925.59 3235.33 1914.49 3235.33 1897.32V1868.04C3235.33 1816.54 3206.79 1796.34 3154.82 1796.34H2976.5V1932.66H3029.49C3044.77 1932.66 3053.94 1941.75 3053.94 1956.9V2221.45H2977.52V2357.77H3320.92V2221.45H3244.5V2139.66C3244.5 2037.68 3295.45 1971.03 3400.4 1971.03C3423.84 1971.03 3439.13 1974.06 3439.13 1974.06V1789.28C3439.13 1789.28 3427.92 1787.26 3416.71 1787.26C3331.11 1786.25 3259.78 1848.85 3235.33 1925.59ZM2732.96 1925.59H2730.92C2730.92 1925.59 2732.96 1914.49 2732.96 1897.32V1868.04C2732.96 1816.54 2704.43 1796.34 2652.46 1796.34H2474.13V1932.66H2527.12C2542.41 1932.66 2551.58 1941.75 2551.58 1956.9V2221.45H2475.15V2357.77H2818.55V2221.45H2742.13V2139.66C2742.13 2037.68 2793.08 1971.03 2898.04 1971.03C2921.47 1971.03 2936.76 1974.06 2936.76 1974.06V1789.28C2936.76 1789.28 2925.55 1787.26 2914.34 1787.26C2827.73 1786.25 2756.4 1848.85 2732.96 1925.59Z" fill="#DADADA"/>
</g>
<defs>
<clipPath id="clip0_1803_844">
<rect width="4076" height="4039" fill="white"/>
</clipPath>
</defs>
</svg>
